<svg width="20" height="20" viewBox="0 0 20 20" fill="none" xmlns="http://www.w3.org/2000/svg">
<g clip-path="url(#clip0)">
<path fill-rule="evenodd" clip-rule="evenodd" d="M8.10001 13.2V19.4C8.10153 19.475 8.08616 19.5494 8.05504 19.6176C8.02391 19.6859 7.97783 19.7462 7.92021 19.7942C7.86259 19.8423 7.7949 19.8767 7.72216 19.895C7.64943 19.9133 7.5735 19.915 7.50001 19.9H2.90001C2.50132 19.9024 2.10643 19.8224 1.74019 19.6648C1.37394 19.5072 1.04426 19.2756 0.771886 18.9844C0.499509 18.6932 0.290324 18.3489 0.157487 17.9729C0.0246504 17.597 -0.0289644 17.1977 1.46304e-05 16.8V2.90001C0.01293 2.50598 0.103385 2.11835 0.266207 1.7593C0.42903 1.40025 0.661026 1.07681 0.948933 0.807477C1.23684 0.538145 1.57501 0.328202 1.94411 0.189651C2.31321 0.0511002 2.70599 -0.0133408 3.10001 1.23735e-05H7.50001C7.66161 0.0232649 7.81325 0.0920352 7.93721 0.198285C8.06117 0.304534 8.15232 0.443872 8.20001 0.600012V6.90001C8.18846 7.05531 8.12154 7.2013 8.01142 7.31142C7.90131 7.42154 7.75531 7.48846 7.60001 7.50001H3.20001C3.20516 7.18336 3.33325 6.88112 3.55718 6.65718C3.78112 6.43324 4.08336 6.30516 4.40001 6.30001H6.80001V1.30001H2.90001C2.43758 1.31824 2.00069 1.51686 1.68292 1.85331C1.36516 2.18977 1.19181 2.6373 1.20001 3.10001V17.1C1.21148 17.337 1.26992 17.5693 1.37196 17.7834C1.47399 17.9976 1.61757 18.1893 1.79436 18.3475C1.97115 18.5057 2.17762 18.6271 2.40176 18.7048C2.62591 18.7825 2.86326 18.8149 3.10001 18.8H6.80001V13.8H4.30001C3.98336 13.7949 3.68112 13.6668 3.45718 13.4428C3.23325 13.2189 3.10516 12.9167 3.10001 12.6H7.50001C7.65531 12.6116 7.80131 12.6785 7.91142 12.7886C8.02154 12.8987 8.08846 13.0447 8.10001 13.2ZM9.39999 9.4H17.9L15.8 7.4L16.7 6.5L19.8 9.6C19.8974 9.72982 19.95 9.88772 19.95 10.05C19.95 10.2123 19.8974 10.3702 19.8 10.5L16.7 13.6L15.8 12.7L17.9 10.6H9.39999V9.4Z" fill="black"/>
</g>
<defs>
<clipPath id="clip0">
<rect width="20" height="20" fill="white"/>
</clipPath>
</defs>
</svg>
