<svg width="28" height="33" viewBox="0 0 28 33" fill="none" xmlns="http://www.w3.org/2000/svg">
<path fill-rule="evenodd" clip-rule="evenodd" d="M12.9593 4.36453C14.1482 2.99057 15.7793 2.19995 17.5 2.19995H21C21.3038 2.19995 21.55 2.44619 21.55 2.74995V8.14297C21.55 8.44672 21.3038 8.69297 21 8.69297H17.5C17.3643 8.69297 17.2148 8.75463 17.091 8.89775C16.965 9.04337 16.8834 9.25588 16.8834 9.49122V12.986H21C21.1663 12.986 21.3237 13.0612 21.4281 13.1906C21.5325 13.32 21.5728 13.4897 21.5376 13.6523L20.3709 19.0453C20.3162 19.2984 20.0923 19.479 19.8334 19.479H16.8834V29.715C16.8834 30.0188 16.6371 30.265 16.3334 30.265H11.6667C11.3629 30.265 11.1167 30.0188 11.1167 29.715V19.479H8.1667C7.86294 19.479 7.6167 19.2328 7.6167 18.929V13.536C7.6167 13.2322 7.86294 12.986 8.1667 12.986H11.1167V9.49122C11.1167 7.58109 11.7726 5.73599 12.9593 4.36453ZM17.5 3.29995C16.1266 3.29995 14.7902 3.92981 13.7912 5.08431C12.79 6.24132 12.2167 7.82556 12.2167 9.49122V13.536C12.2167 13.8397 11.9705 14.086 11.6667 14.086H8.7167V18.379H11.6667C11.9705 18.379 12.2167 18.6252 12.2167 18.929V29.165H15.7834V18.929C15.7834 18.6252 16.0296 18.379 16.3334 18.379H19.3896L20.3183 14.086H16.3334C16.0296 14.086 15.7834 13.8397 15.7834 13.536V9.49122C15.7834 9.01141 15.9476 8.53804 16.2592 8.17797C16.5729 7.8154 17.017 7.59297 17.5 7.59297H20.45V3.29995H17.5Z" fill="#666666"/>
</svg>
